# Blender 3.3.1
# www.blender.org
mtllib objplatform.mtl
o Cube.001
v 3.000000 0.249999 -5.000000
v 3.000000 -0.250001 -5.000000
v 3.000000 0.250001 5.000000
v 3.000000 -0.249999 5.000000
v -3.000000 0.249999 -5.000000
v -3.000000 -0.250001 -5.000000
v -3.000000 0.250001 5.000000
v -3.000000 -0.249999 5.000000
v 3.000000 0.249999 -5.000000
v 3.000000 0.250001 5.000000
v -3.000000 0.250001 5.000000
v -3.000000 0.249999 -5.000000
v 3.000000 0.249999 -5.000000
v 3.000000 0.250001 5.000000
v -3.000000 0.250001 5.000000
v -3.000000 0.249999 -5.000000
v 3.000000 0.249999 -5.000000
v 3.000000 0.250001 5.000000
v -3.000000 0.250001 5.000000
v 1.969213 0.608429 3.282022
v -1.969213 0.608429 3.282022
v 1.969213 0.608428 -3.282022
v -1.969213 0.608428 -3.282022
vn -0.3284 0.9445 -0.0000
vn -0.0000 -0.0000 1.0000
vn -1.0000 -0.0000 -0.0000
vn -0.0000 -1.0000 -0.0000
vn 1.0000 -0.0000 -0.0000
vn -0.0000 -0.0000 -1.0000
vn -0.0000 1.0000 -0.0000
vn 0.3284 0.9445 -0.0000
vn -0.0000 0.9789 -0.2042
vn -0.0000 0.9789 0.2042
vt 0.625000 0.500000
vt 0.375000 0.500000
vt 0.625000 0.750000
vt 0.375000 0.750000
vt 0.625000 0.250000
vt 0.125000 0.500000
vt 0.375000 0.250000
vt 0.625000 1.000000
vt 0.625000 0.000000
vt 0.875000 0.750000
vt 0.375000 0.000000
vt 0.375000 1.000000
vt 0.125000 0.750000
vt 0.625000 0.500000
vt 0.625000 0.750000
vt 0.875000 0.750000
vt 0.625000 0.500000
vt 0.625000 0.750000
vt 0.875000 0.750000
vt 0.625000 0.500000
vt 0.625000 0.750000
vt 0.875000 0.750000
vt 0.625000 0.750000
vt 0.625000 0.000000
vt 0.875000 0.750000
vt 0.625000 1.000000
vt 0.625000 0.500000
vt 0.875000 0.500000
vt 0.625000 0.250000
s 1
usemtl Material.001
f 7/9/1 23/29/1 5/5/1
f 3/3/2 8/12/2 4/4/2
f 7/9/3 6/7/3 8/11/3
f 2/2/4 8/13/4 6/6/4
f 1/1/5 4/4/5 2/2/5
f 5/5/6 2/2/6 6/7/6
f 3/3/7 9/14/7 10/15/7
f 7/10/7 10/15/7 11/16/7
f 10/15/7 13/17/7 14/18/7
f 11/16/7 14/18/7 15/19/7
f 14/18/7 17/20/7 18/21/7
f 15/19/7 18/21/7 19/22/7
f 23/28/7 20/23/7 22/27/7
f 1/1/8 20/23/8 3/3/8
f 5/5/9 22/27/9 1/1/9
f 3/3/10 21/26/10 7/8/10
f 7/9/1 21/24/1 23/29/1
f 3/3/2 7/8/2 8/12/2
f 7/9/3 5/5/3 6/7/3
f 2/2/4 4/4/4 8/13/4
f 1/1/5 3/3/5 4/4/5
f 5/5/6 1/1/6 2/2/6
f 3/3/7 1/1/7 9/14/7
f 7/10/7 3/3/7 10/15/7
f 10/15/7 9/14/7 13/17/7
f 11/16/7 10/15/7 14/18/7
f 14/18/7 13/17/7 17/20/7
f 15/19/7 14/18/7 18/21/7
f 23/28/7 21/25/7 20/23/7
f 1/1/8 22/27/8 20/23/8
f 5/5/9 23/29/9 22/27/9
f 3/3/10 20/23/10 21/26/10
